<svg width="750" height="444" viewBox="0 0 750 444" fill="none" xmlns="http://www.w3.org/2000/svg">
<path d="M0 443.905V0H70.4564L245.339 272.254H209.482L383.736 0H454.821V443.905H356.056V166.622L373.671 171.023L259.808 348.334H194.384L81.1507 171.023L98.1357 166.622V443.905H0Z" fill="#0F6E56"/>
<path d="M480.746 0H517.132V443.905H480.746V0Z" fill="#0F6E56"/>
<path d="M713.614 0H750V305.64H713.614V0Z" fill="#0F6E56"/>
<path d="M573.529 305.64V269.254H720.891V305.64H573.529Z" fill="#0F6E56"/>
<path d="M496.21 187.386V151.001H629.927V187.386H496.21Z" fill="#0F6E56"/>
<path d="M671.771 187.386V151.001H727.259V187.386H671.771Z" fill="#0F6E56"/>
<path d="M617.192 322.013H580.807V280.17H617.192V322.013Z" fill="#0F6E56"/>
<path d="M531.686 269.254V305.64H496.21V269.254H531.686Z" fill="#0F6E56"/>
<path d="M580.807 357.489H617.192V443.905H580.807V357.489Z" fill="#0F6E56"/>
<path d="M593.542 29.1086H629.927V96.4221H593.542V29.1086Z" fill="#0F6E56"/>
<path d="M593.542 140.995H629.927V170.103H593.542V140.995Z" fill="#0F6E56"/>
<path d="M500.758 36.3857V0H720.891V36.3857H500.758Z" fill="#0F6E56"/>
<path d="M496.21 443.905V407.52H602.638V443.905H496.21Z" fill="#0F6E56"/>
</svg>
